<?xml version="1.0" encoding="utf-8"?>
<!-- Generator: Adobe Illustrator 26.0.0, SVG Export Plug-In . SVG Version: 6.00 Build 0)  -->
<svg version="1.1" id="logo" xmlns="http://www.w3.org/2000/svg" xmlns:xlink="http://www.w3.org/1999/xlink" x="0px" y="0px"
	 viewBox="0 0 321.7 336.69" style="enable-background:new 0 0 321.7 336.69;" xml:space="preserve">
<style type="text/css">
	.st0{fill:#93D500;}
	.st1{fill:#FFFFFF;}
	.st2{fill:#FEFEFE;}
	.st3{fill:#410099;}
</style>
<g>
	<path class="st0" d="M40.87,237c-12.89,0-23.3-5.02-27.84-13.42c-3.61-6.69-2.97-14.65,1.75-21.83L138.59,13.47
		C143.31,6.29,151.64,2,160.89,2c9.25,0,17.59,4.29,22.31,11.47l123.81,188.28c4.65,7.08,5.25,14.97,1.64,21.65
		c-4.58,8.51-14.95,13.6-27.74,13.6H40.87z"/>
	<path class="st1" d="M160.89,4c8.57,0,16.29,3.95,20.64,10.57l123.81,188.28c4.23,6.44,4.8,13.58,1.55,19.6
		c-4.23,7.86-13.95,12.55-25.98,12.55H40.87c-12.15,0-21.9-4.63-26.08-12.37c-3.25-6.03-2.64-13.24,1.66-19.78L140.26,14.57
		C144.61,7.95,152.32,4,160.89,4 M160.89,0c-9.92,0-18.88,4.63-23.97,12.37L13.11,200.65c-5.14,7.81-5.81,16.51-1.84,23.88
		c4.89,9.06,15.96,14.47,29.6,14.47h240.04c13.54,0,24.56-5.48,29.5-14.65c3.96-7.34,3.34-15.98-1.73-23.69L184.87,12.37
		C179.78,4.63,170.81,0,160.89,0L160.89,0z"/>
</g>
<path class="st2" d="M217.4,119.34c-0.61,0-1.1-0.5-1.1-1.11c0-0.6,0.49-1.1,1.1-1.1h4.94v-4.94c0-0.61,0.5-1.1,1.1-1.1
	c0.61,0,1.11,0.49,1.11,1.1v4.94h4.94c0.61,0,1.1,0.5,1.1,1.1c0,0.61-0.49,1.11-1.1,1.11h-4.94v4.94c0,0.61-0.5,1.1-1.11,1.1
	c-0.6,0-1.1-0.49-1.1-1.1v-4.94H217.4z"/>
<polygon class="st2" points="213.04,91.78 205.26,94.66 202.38,102.43 199.51,94.66 191.73,91.78 199.51,88.9 202.38,81.13 
	205.26,88.9 "/>
<path class="st2" d="M96.9,113.5c-0.94,0-1.7-0.76-1.7-1.7s0.76-1.7,1.7-1.7h7.63v-7.63c0-0.94,0.76-1.7,1.7-1.7s1.7,0.76,1.7,1.7
	v7.63h7.63c0.94,0,1.7,0.76,1.7,1.7s-0.76,1.7-1.7,1.7h-7.63v7.63c0,0.94-0.76,1.7-1.7,1.7s-1.7-0.76-1.7-1.7v-7.63H96.9z"/>
<polygon class="st2" points="155.82,33.97 158.96,23.78 162.1,33.97 172.29,37.11 162.1,40.25 158.96,50.44 155.82,40.25 
	145.63,37.11 "/>
<path class="st2" d="M299.99,218.73c-2.8,5.2-10.11,8.43-19.08,8.43H40.87c-9.08,0-16.43-3.16-19.18-8.26
	c-1.89-3.5-1.44-7.57,1.31-11.75l29.49-44.84c14.63-12.78,39.74-30.47,72.99-38.15c3.01-26.2,14.17-47.93,32.84-63.64l2.78-2.34
	l2.59,2.55c17.41,17.08,28.17,38.57,31.72,63.05c34.85,6.83,57.96,22.58,71.67,35.16l31.7,48.21
	C301.46,211.23,301.88,215.23,299.99,218.73z"/>
<path class="st3" d="M283.17,180.2c0,0-0.07-0.07-0.21-0.19C283.1,180.18,283.17,180.25,283.17,180.2z"/>
<path class="st3" d="M53.05,195.27l-10.02,6.65c0.29,4.94,3.31,4.58,3.31,4.58l9.44-6.17C53.12,198.53,53.05,195.27,53.05,195.27z"
	/>
<path class="st3" d="M77.01,189.85c0,0-3.88-2.55-4.47-8.8l-18.09,11.3c0,0,0.11,5.67,4.08,7.86L77.01,189.85z"/>
<path class="st3" d="M74.25,178.06c0,0-0.08,7.79,5.99,10.87l19.3-10.55c0,0-3.97-0.3-6.09-4.63c-1.98-4.03-0.75-6.91-0.75-6.91
	L74.25,178.06z"/>
<path class="st3" d="M94.19,166.61c0,0-0.95,1.97,0.25,3.09c0,0,2.34-0.61,3.59,1.58c1.25,2.19,1.33,3.71,0.06,4.88
	c0,0,1.58,1.04,2.88,1.14c0.08,0.05,2.21-2.62-0.66-7.42C97.9,165.81,94.19,166.61,94.19,166.61z"/>
<polygon class="st3" points="70.03,199.13 63.11,227.16 67.96,227.16 72.5,201.89 74.99,200.86 84.03,227.16 89.54,227.16 
	77.21,194.72 "/>
<polygon class="st3" points="79.14,195.18 81.27,201.06 98.82,227.16 105.41,227.16 82.72,195.56 "/>
<path class="st3" d="M181.68,197.19c0-0.91-0.07-1.81-0.17-2.69h3.26l0.43-1.04c0.07-0.17,0.46-1.13,1.05-2.78
	c9.01-0.04,22.97,9.8,25.84,6.15c2.59-3.3-13.3-29.41-18.63-37.96c0.39-3.38,0.69-6.93,0.85-10.63c0.14-3.28,0.16-6.77,0.04-10.4
	c51.84,9.8,85.67,39.51,88.61,42.18c-2.52-3.2-28.28-41.97-89.48-53.25c-2.53-20.49-10.7-44.08-31.4-64.38l-1.1-1.08l-1.18,0.99
	c-18.82,15.83-29.8,37.98-32.31,64.75c-55.64,12.04-89.05,52.41-89.65,53.15c0.76-0.56,40.73-30.26,89.1-41.36
	c0,2.27,0.04,4.56,0.15,6.88c0.2,4.27,0.58,8.39,1.07,12.31c-4.71,7.51-21.83,35.37-19.15,38.79c2.95,3.76,17.62-6.75,26.58-6.12
	c0.59,1.72,0.96,2.68,0.98,2.73l0.42,1.07h1.9c-0.1,0.88-0.17,1.78-0.17,2.69c0,8.24,4.35,15.42,10.8,19.25l10.13,37.82l10.61-37.46
	C177.05,213.07,181.68,205.69,181.68,197.19z M149.03,191.11c-2.65-6.03-11.26-28.28-9.36-59.67c0.05-0.84-0.59-1.56-1.43-1.61
	c-0.85-0.04-1.56,0.59-1.61,1.43c-1.85,30.52,5.8,52.17,9.06,59.85h-6.36c-1.64-4.56-7.83-23.08-8.86-45.65
	c-0.88-19.19,1.96-44.59,17.85-66.07c2.51,1,11.9,4.23,21.95,1.3c7.3,10.82,25.99,47.16,2.51,110.41H149.03z"/>
<path class="st3" d="M161.07,103.01c-8.42,0-15.24,14.58-15.24,23c0,8.42,6.82,15.24,15.24,15.24c8.41,0,15.24-6.82,15.24-15.24
	C176.31,117.59,169.48,103.01,161.07,103.01z M154.72,126.79c-2.12,0-3.83-1.72-3.83-3.83c0-2.11,1.71-3.82,3.83-3.82
	c2.11,0,3.82,1.71,3.82,3.82C158.54,125.07,156.83,126.79,154.72,126.79z"/>
<path class="st3" d="M161.06,149.55c-4.4,0-7.96,3.56-7.96,7.96c0,4.4,3.56,18.29,7.96,18.29s7.96-13.89,7.96-18.29
	C169.03,153.11,165.46,149.55,161.06,149.55z"/>
<path class="st3" d="M138.88,124.75c-0.95,0-1.72,0.77-1.72,1.72c0,0.95,0.77,1.72,1.72,1.72c0.95,0,1.72-0.77,1.72-1.72
	C140.61,125.52,139.84,124.75,138.88,124.75z"/>
<path class="st3" d="M265.16,195.78c7.11-5.21,12.58-10.7,10.73-14.09c-1.32-2.43-5.47-2.55-12.68-0.35
	c-1.32,0.4-2.72,0.89-4.16,1.42c-3.62-3.48-8.52-5.64-13.93-5.64c-11.09,0-20.11,9.02-20.11,20.11c0,1.3,0.13,2.56,0.37,3.79
	c-1.37,1.02-2.65,2.02-3.8,3c-5.76,4.86-7.91,8.41-6.58,10.84c0.7,1.28,2.17,1.92,4.45,1.92c2.07,0,4.8-0.52,8.23-1.57
	c1.7-0.52,3.52-1.16,5.42-1.89c3.36,2.52,7.52,4.03,12.03,4.03c11.09,0,20.11-9.02,20.11-20.11
	C265.24,196.74,265.2,196.26,265.16,195.78z M245.12,180.32c4,0,7.68,1.4,10.57,3.74c-4.48,1.84-9.35,4.17-14.27,6.85
	c-4.77,2.6-9.24,5.34-13.13,8.03c-0.06-0.56-0.09-1.13-0.09-1.7C228.22,187.91,235.8,180.32,245.12,180.32z M217.82,213.36
	c-0.22-1.11,2.62-4.5,8.51-9.02c0.93,2.45,2.32,4.67,4.07,6.56C223.16,213.54,218.63,214.12,217.82,213.36z M229.02,202.35
	c3.72-2.65,8.36-5.59,13.95-8.63c5.78-3.15,10.9-5.5,15.23-7.2c1.8,2.19,3.04,4.84,3.56,7.75c-3.7,2.63-8.3,5.54-13.83,8.55
	c-5.34,2.91-10.13,5.15-14.25,6.81C231.55,207.67,229.92,205.18,229.02,202.35z M245.12,214.14c-3.08,0-5.96-0.84-8.45-2.28
	c4.06-1.73,8.4-3.83,12.78-6.22c3.76-2.05,8.28-4.74,12.54-7.63C261.58,206.97,254.18,214.14,245.12,214.14z M261.32,185.35
	c4.84-1.7,8.38-2.44,10.29-2.44c0.73,0,1.22,0.11,1.46,0.31c0.15,1.14-2.68,4.51-8.5,8.97
	C263.92,189.69,262.81,187.38,261.32,185.35z"/>
<path class="st1" d="M13.11,260.88C5.93,260.88,0,266.81,0,273.99v5.81c0,3.42,0,3.42,2.16,7.3l16.42,28.95
	c0.34,0.57,0.34,0.57,0.34,1.82v5.7c0,3.3-2.62,5.93-5.81,5.93c-3.19,0-5.81-2.62-5.81-5.93v-3.88c0-0.91-0.8-1.82-1.82-1.82H1.82
	c-1.02,0-1.82,0.91-1.82,1.82v3.88c0,7.3,5.93,13.11,13.11,13.11c7.18,0,13.11-5.81,13.11-13.11v-5.7c0-3.31,0-3.31-2.17-7.18
	L7.64,281.74c-0.34-0.57-0.34-0.57-0.34-1.94v-5.81c0-3.19,2.62-5.81,5.81-5.81c3.19,0,5.81,2.62,5.81,5.81v3.88
	c0,1.02,0.8,1.82,1.82,1.82h3.65c1.03,0,1.82-0.8,1.82-1.82v-3.88C26.22,266.81,20.29,260.88,13.11,260.88z"/>
<path class="st1" d="M49.36,260.88H31.8c-1.02,0-1.82,0.91-1.82,1.82v3.65c0,1.03,0.8,1.82,1.82,1.82h5.13v66.69
	c0,1.03,0.8,1.82,1.82,1.82h3.65c1.03,0,1.82-0.8,1.82-1.82v-66.69h5.13c1.03,0,1.82-0.8,1.82-1.82v-3.65
	C51.19,261.79,50.39,260.88,49.36,260.88z"/>
<path class="st1" d="M105.56,260.88H96.1c-2.05,0-3.65,1.71-3.65,3.65v70.34c0,1.03,0.8,1.82,1.82,1.82h3.65
	c0.91,0,1.82-0.8,1.82-1.82v-32.49h5.81c3.19,0,5.81,2.62,5.81,5.93v26.56c0,1.03,0.8,1.82,1.82,1.82h3.65
	c1.02,0,1.82-0.8,1.82-1.82V308.3c0-3.76-1.48-7.18-3.99-9.58c2.51-2.39,3.99-5.7,3.99-9.46V274.1
	C118.67,266.81,112.86,260.88,105.56,260.88z M111.37,289.26c0,3.19-2.62,5.82-5.81,5.82h-5.81v-26.9h5.81
	c3.19,0,5.81,2.62,5.81,5.93V289.26z"/>
<path class="st1" d="M141.24,260.88c-7.18,0-13.11,5.93-13.11,13.11v49.59c0,7.18,5.93,13.11,13.11,13.11
	c7.18,0,13.11-5.93,13.11-13.11v-26.79c0-1.03-0.8-1.82-1.82-1.82h-9.46c-1.03,0-1.82,0.8-1.82,1.82v3.65c0,1.02,0.8,1.82,1.82,1.82
	h3.99v21.32c0,3.19-2.62,5.81-5.81,5.81c-3.19,0-5.81-2.62-5.81-5.81v-49.59c0-3.19,2.62-5.81,5.81-5.81c3.19,0,5.81,2.62,5.81,5.81
	v3.88c0,1.02,0.8,1.82,1.82,1.82h3.65c1.03,0,1.82-0.8,1.82-1.82v-3.88C154.35,266.81,148.42,260.88,141.24,260.88z"/>
<path class="st1" d="M224,260.88h-22.57c-1.02,0-1.82,0.91-1.82,1.82v3.65c0,1.03,0.8,1.82,1.82,1.82h17.1v11.74
	c0,1.25,0,1.25-0.23,1.82l-16.53,29.07c-2.16,3.88-2.16,3.88-2.16,7.3v16.76c0,1.03,0.8,1.82,1.82,1.82H224
	c1.03,0,1.82-0.8,1.82-1.82v-3.65c0-0.91-0.8-1.82-1.82-1.82h-17.1v-11.29c0-1.37,0-1.37,0.34-1.94l16.42-28.96
	c2.17-3.99,2.17-3.99,2.17-7.3V262.7C225.83,261.79,225.03,260.88,224,260.88z"/>
<path class="st1" d="M251.36,260.88h-13.57c-2.05,0-3.65,1.71-3.65,3.65v68.51c0,2.05,1.6,3.65,3.65,3.65h13.57
	c1.03,0,1.82-0.8,1.82-1.82v-3.65c0-0.91-0.8-1.82-1.82-1.82h-9.92v-26.9h9.92c1.03,0,1.82-0.91,1.82-1.82v-3.65
	c0-1.03-0.8-1.82-1.82-1.82h-9.92v-27.02h9.92c1.03,0,1.82-0.8,1.82-1.82v-3.65C253.18,261.79,252.39,260.88,251.36,260.88z"/>
<path class="st1" d="M274.62,260.88h-9.46c-2.05,0-3.65,1.71-3.65,3.65v70.34c0,1.03,0.8,1.82,1.82,1.82h3.65
	c0.91,0,1.82-0.8,1.82-1.82v-32.49h5.81c3.19,0,5.82,2.62,5.82,5.93v26.56c0,1.03,0.8,1.82,1.82,1.82h3.65
	c1.02,0,1.82-0.8,1.82-1.82V308.3c0-3.76-1.48-7.18-3.99-9.58c2.51-2.39,3.99-5.7,3.99-9.46V274.1
	C287.73,266.81,281.91,260.88,274.62,260.88z M280.43,289.26c0,3.19-2.62,5.82-5.82,5.82h-5.81v-26.9h5.81
	c3.19,0,5.82,2.62,5.82,5.93V289.26z"/>
<path class="st1" d="M316.23,279.69h3.65c1.03,0,1.82-0.8,1.82-1.82v-3.88c0-7.18-5.93-13.11-13.11-13.11
	c-7.18,0-13.11,5.93-13.11,13.11v5.81c0,3.42,0,3.42,2.16,7.3l16.42,28.95c0.34,0.57,0.34,0.57,0.34,1.82v5.7
	c0,3.3-2.62,5.93-5.81,5.93c-3.19,0-5.81-2.62-5.81-5.93v-3.88c0-0.91-0.8-1.82-1.82-1.82h-3.65c-1.02,0-1.82,0.91-1.82,1.82v3.88
	c0,7.3,5.93,13.11,13.11,13.11c7.18,0,13.11-5.81,13.11-13.11v-5.7c0-3.31,0-3.31-2.17-7.18l-16.41-28.96
	c-0.34-0.57-0.34-0.57-0.34-1.94v-5.81c0-3.19,2.62-5.81,5.81-5.81c3.19,0,5.81,2.62,5.81,5.81v3.88
	C314.4,278.89,315.2,279.69,316.23,279.69z"/>
<path class="st1" d="M177.04,260.88c-7.29,0-13.22,5.93-13.22,13.22v60.76c0,1.03,0.91,1.82,1.82,1.82h3.65
	c1.03,0,1.82-0.8,1.82-1.82v-28.78l11.74-7.3v36.08c0,1.03,0.8,1.82,1.82,1.82h3.65c1.03,0,1.82-0.8,1.82-1.82V274.1
	C190.15,266.81,184.22,260.88,177.04,260.88z M182.85,291.49l-11.74,7.3V274.1c0-3.31,2.62-5.93,5.93-5.93
	c3.19,0,5.81,2.62,5.81,5.93V291.49z"/>
<path class="st1" d="M70.45,260.88c-7.29,0-13.22,5.93-13.22,13.22v60.76c0,1.03,0.91,1.82,1.82,1.82h3.65
	c1.03,0,1.82-0.8,1.82-1.82v-28.78l11.74-7.3v36.08c0,1.03,0.8,1.82,1.82,1.82h3.65c1.03,0,1.82-0.8,1.82-1.82V274.1
	C83.56,266.81,77.63,260.88,70.45,260.88z M76.26,291.49l-11.74,7.3V274.1c0-3.31,2.62-5.93,5.93-5.93c3.19,0,5.81,2.62,5.81,5.93
	V291.49z"/>
</svg>
